<svg width="18" height="19" viewBox="0 0 18 19" fill="none" xmlns="http://www.w3.org/2000/svg">
<path d="M18 9.1879V18.1879C18 18.3868 17.921 18.5776 17.7803 18.7182C17.6397 18.8589 17.4489 18.9379 17.25 18.9379H12C11.8011 18.9379 11.6103 18.8589 11.4697 18.7182C11.329 18.5776 11.25 18.3868 11.25 18.1879V13.3129C11.25 13.2134 11.2105 13.1181 11.1402 13.0477C11.0698 12.9774 10.9745 12.9379 10.875 12.9379H7.125C7.02554 12.9379 6.93016 12.9774 6.85983 13.0477C6.78951 13.1181 6.75 13.2134 6.75 13.3129V18.1879C6.75 18.3868 6.67098 18.5776 6.53033 18.7182C6.38968 18.8589 6.19891 18.9379 6 18.9379H0.75C0.551088 18.9379 0.360322 18.8589 0.21967 18.7182C0.0790178 18.5776 0 18.3868 0 18.1879V9.1879C0.000184396 8.79015 0.15834 8.40875 0.439687 8.12759L7.93969 0.627591C8.22096 0.346499 8.60235 0.188599 9 0.188599C9.39765 0.188599 9.77904 0.346499 10.0603 0.627591L17.5603 8.12759C17.8417 8.40875 17.9998 8.79015 18 9.1879Z" fill="black"/>
</svg>
