<svg width="23" height="26" viewBox="0 0 23 26" fill="none" xmlns="http://www.w3.org/2000/svg">
<path d="M21.5 9H17V5.5C17 4.04131 16.4205 2.64236 15.3891 1.61091C14.3576 0.579463 12.9587 0 11.5 0C10.0413 0 8.64236 0.579463 7.61091 1.61091C6.57946 2.64236 6 4.04131 6 5.5V9H1.5C1.10218 9 0.720644 9.15804 0.43934 9.43934C0.158035 9.72064 0 10.1022 0 10.5V24.5C0 24.8978 0.158035 25.2794 0.43934 25.5607C0.720644 25.842 1.10218 26 1.5 26H21.5C21.8978 26 22.2794 25.842 22.5607 25.5607C22.842 25.2794 23 24.8978 23 24.5V10.5C23 10.1022 22.842 9.72064 22.5607 9.43934C22.2794 9.15804 21.8978 9 21.5 9ZM7 5.5C7 4.30653 7.47411 3.16193 8.31802 2.31802C9.16193 1.47411 10.3065 1 11.5 1C12.6935 1 13.8381 1.47411 14.682 2.31802C15.5259 3.16193 16 4.30653 16 5.5V9H7V5.5ZM22 24.5C22 24.6326 21.9473 24.7598 21.8536 24.8536C21.7598 24.9473 21.6326 25 21.5 25H1.5C1.36739 25 1.24021 24.9473 1.14645 24.8536C1.05268 24.7598 1 24.6326 1 24.5V10.5C1 10.3674 1.05268 10.2402 1.14645 10.1464C1.24021 10.0527 1.36739 10 1.5 10H21.5C21.6326 10 21.7598 10.0527 21.8536 10.1464C21.9473 10.2402 22 10.3674 22 10.5V24.5ZM12.5 17.5C12.5 17.6978 12.4414 17.8911 12.3315 18.0556C12.2216 18.22 12.0654 18.3482 11.8827 18.4239C11.7 18.4996 11.4989 18.5194 11.3049 18.4808C11.1109 18.4422 10.9327 18.347 10.7929 18.2071C10.653 18.0673 10.5578 17.8891 10.5192 17.6951C10.4806 17.5011 10.5004 17.3 10.5761 17.1173C10.6518 16.9346 10.78 16.7784 10.9444 16.6685C11.1089 16.5586 11.3022 16.5 11.5 16.5C11.7652 16.5 12.0196 16.6054 12.2071 16.7929C12.3946 16.9804 12.5 17.2348 12.5 17.5Z" fill="black"/>
</svg>
