<svg width="24" height="24" viewBox="0 0 24 24" fill="none" xmlns="http://www.w3.org/2000/svg">
<path d="M23.0975 16.766L17.195 14.1247C16.9662 14.0257 16.7163 13.9853 16.4679 14.0071C16.2196 14.0289 15.9806 14.1123 15.7725 14.2497C15.7559 14.2603 15.74 14.272 15.725 14.2847L12.625 16.9272C12.556 16.9693 12.4777 16.9937 12.3971 16.9983C12.3164 17.0029 12.2358 16.9875 12.1625 16.9535C10.1325 15.9735 8.03126 13.8885 7.05126 11.8822C7.0166 11.8095 7.00051 11.7293 7.00443 11.6488C7.00836 11.5683 7.03218 11.49 7.07376 11.421L9.72376 8.26972C9.73626 8.25472 9.74751 8.23847 9.75876 8.22222C9.89575 8.01447 9.9789 7.7759 10.0007 7.52801C10.0225 7.28012 9.98235 7.0307 9.88376 6.80222L7.23751 0.909716C7.10976 0.611273 6.88864 0.362332 6.60734 0.200273C6.32605 0.0382144 5.99978 -0.0282131 5.67751 0.0109657C4.10448 0.218366 2.66073 0.991295 1.61593 2.18539C0.571124 3.37948 -0.00327494 4.91307 1.40465e-05 6.49972C1.40465e-05 16.1497 7.85001 23.9997 17.5 23.9997C19.0867 24.003 20.6203 23.4286 21.8143 22.3838C23.0084 21.339 23.7814 19.8953 23.9888 18.3222C24.0277 18.0014 23.9619 17.6766 23.8013 17.3962C23.6407 17.1158 23.3939 16.8948 23.0975 16.766ZM23 18.1972C22.8235 19.5294 22.1678 20.7517 21.1556 21.6356C20.1433 22.5194 18.8438 23.0044 17.5 22.9997C8.40251 22.9997 1.00001 15.5972 1.00001 6.49972C0.995359 5.1559 1.4803 3.85639 2.36417 2.84415C3.24804 1.8319 4.47033 1.17623 5.80251 0.999716C5.82249 0.998474 5.84253 0.998474 5.86251 0.999716C5.96116 1.00056 6.05734 1.03056 6.13897 1.08594C6.2206 1.14132 6.28403 1.21962 6.32126 1.31097L8.96001 7.20347C8.9908 7.27548 9.00424 7.35373 8.99925 7.43189C8.99425 7.51005 8.97097 7.58595 8.93126 7.65347L6.28251 10.8035C6.27001 10.8197 6.25751 10.8347 6.24626 10.8522C6.10515 11.068 6.02204 11.3165 6.00496 11.5738C5.98788 11.8311 6.03741 12.0884 6.14876 12.321C7.23501 14.5447 9.47501 16.7685 11.7238 17.8547C11.9579 17.9653 12.2167 18.0135 12.475 17.9944C12.7332 17.9754 12.9821 17.8898 13.1975 17.746L13.2438 17.711L16.3475 15.071C16.4139 15.0304 16.489 15.0062 16.5666 15.0003C16.6442 14.9945 16.722 15.0071 16.7938 15.0372L22.695 17.6822C22.7946 17.7237 22.8781 17.7962 22.9331 17.889C22.9881 17.9819 23.0115 18.09 23 18.1972Z" fill="black"/>
</svg>
