<svg width="17" height="11" viewBox="0 0 17 11" fill="none" xmlns="http://www.w3.org/2000/svg">
<path d="M16.305 9.28695L11.7122 1.12507H15.7904C15.9364 1.12829 16.0781 1.07577 16.1868 0.978206C16.2954 0.880639 16.3629 0.745346 16.3754 0.599838C16.3805 0.522896 16.3697 0.445725 16.3437 0.373118C16.3178 0.300512 16.2771 0.23402 16.2244 0.177774C16.1716 0.121529 16.1079 0.0767297 16.0371 0.0461601C15.9663 0.0155905 15.89 -9.66699e-05 15.8129 7.27531e-05H1.20684C1.06144 -0.0022404 0.920564 0.0506803 0.812646 0.148158C0.704729 0.245636 0.637798 0.380416 0.625356 0.525307C0.620248 0.60225 0.631013 0.679421 0.656985 0.752027C0.682957 0.824634 0.72358 0.891125 0.776331 0.947371C0.829082 1.00362 0.892834 1.04842 0.963628 1.07899C1.03442 1.10956 1.11074 1.12524 1.18786 1.12507H5.28848L0.695669 9.28695C0.636712 9.39175 0.612889 9.51268 0.627694 9.63201C0.642499 9.75134 0.695154 9.86278 0.777935 9.94999C0.832721 10.0062 0.898369 10.0508 0.970891 10.0809C1.04341 10.111 1.1213 10.126 1.19981 10.1251H7.65661C7.7312 10.1251 7.80274 10.0954 7.85548 10.0427C7.90823 9.98995 7.93786 9.91842 7.93786 9.84382V8.45656C7.9359 8.31139 7.98898 8.17087 8.08643 8.06325C8.18387 7.95564 8.31845 7.88891 8.46309 7.87648C8.54003 7.87137 8.61721 7.88214 8.68981 7.90811C8.76242 7.93408 8.82891 7.9747 8.88515 8.02745C8.9414 8.0802 8.9862 8.14396 9.01677 8.21475C9.04734 8.28554 9.06303 8.36187 9.06286 8.43898V9.84523C9.06286 9.91982 9.09249 9.99136 9.14523 10.0441C9.19798 10.0968 9.26951 10.1265 9.34411 10.1265H15.7967C15.8752 10.1274 15.9531 10.1124 16.0256 10.0823C16.0981 10.0522 16.1638 10.0076 16.2186 9.9514C16.3023 9.86457 16.356 9.7531 16.3715 9.63346C16.3871 9.51381 16.3638 9.39233 16.305 9.28695ZM9.06286 5.90632C9.06286 6.05551 9.00359 6.19858 8.8981 6.30407C8.79261 6.40956 8.64954 6.46882 8.50036 6.46882C8.35117 6.46882 8.2081 6.40956 8.10261 6.30407C7.99712 6.19858 7.93786 6.05551 7.93786 5.90632V4.78132C7.93786 4.63214 7.99712 4.48906 8.10261 4.38358C8.2081 4.27809 8.35117 4.21882 8.50036 4.21882C8.64954 4.21882 8.79261 4.27809 8.8981 4.38358C9.00359 4.48906 9.06286 4.63214 9.06286 4.78132V5.90632ZM9.06286 2.25007C9.06286 2.39926 9.00359 2.54233 8.8981 2.64782C8.79261 2.75331 8.64954 2.81257 8.50036 2.81257C8.35117 2.81257 8.2081 2.75331 8.10261 2.64782C7.99712 2.54233 7.93786 2.39926 7.93786 2.25007V1.68757C7.93786 1.53839 7.99712 1.39531 8.10261 1.28983C8.2081 1.18434 8.35117 1.12507 8.50036 1.12507C8.64954 1.12507 8.79261 1.18434 8.8981 1.28983C9.00359 1.39531 9.06286 1.53839 9.06286 1.68757V2.25007Z" fill="black"/>
</svg>
