<svg width="26" height="26" viewBox="0 0 26 26" fill="none" xmlns="http://www.w3.org/2000/svg">
<path d="M24.8788 24.1713L18.2913 17.5838C20.1376 15.5528 21.1163 12.8802 21.0183 10.1372C20.9203 7.39422 19.7534 4.79832 17.7669 2.90422C15.7804 1.01013 13.132 -0.0319211 10.3874 0.000745471C7.64282 0.033412 5.01988 1.1382 3.07904 3.07904C1.1382 5.01988 0.033412 7.64282 0.000745471 10.3874C-0.0319211 13.132 1.01013 15.7804 2.90422 17.7669C4.79832 19.7534 7.39422 20.9203 10.1372 21.0183C12.8802 21.1163 15.5528 20.1376 17.5838 18.2913L24.1713 24.8788C24.2651 24.9726 24.3924 25.0253 24.525 25.0253C24.6577 25.0253 24.785 24.9726 24.8788 24.8788C24.9726 24.785 25.0253 24.6577 25.0253 24.525C25.0253 24.3924 24.9726 24.2651 24.8788 24.1713ZM1.02504 10.525C1.02504 8.64612 1.5822 6.80939 2.62608 5.24712C3.66995 3.68485 5.15365 2.46722 6.88955 1.74818C8.62544 1.02915 10.5356 0.841019 12.3784 1.20758C14.2212 1.57414 15.914 2.47893 17.2426 3.80752C18.5712 5.13612 19.4759 6.82886 19.8425 8.67168C20.2091 10.5145 20.0209 12.4246 19.3019 14.1605C18.5829 15.8964 17.3652 17.3801 15.803 18.424C14.2407 19.4679 12.404 20.025 10.525 20.025C8.00629 20.0224 5.59147 19.0207 3.81045 17.2396C2.02943 15.4586 1.02769 13.0438 1.02504 10.525Z" fill="black"/>
</svg>
