<svg width="16" height="15" viewBox="0 0 16 15" fill="none" xmlns="http://www.w3.org/2000/svg">
<path d="M15.2371 13.8142C15.1877 13.8997 15.1167 13.9707 15.0311 14.0201C14.9456 14.0695 14.8486 14.0954 14.7498 14.0954H1.24982C1.15113 14.0953 1.0542 14.0693 0.968772 14.0198C0.883342 13.9704 0.812415 13.8994 0.763113 13.8139C0.713812 13.7284 0.687871 13.6315 0.687897 13.5328C0.687922 13.4341 0.713912 13.3371 0.763258 13.2517C1.83412 11.4003 3.48435 10.0728 5.41021 9.44354C4.45759 8.87644 3.71747 8.01232 3.3035 6.98387C2.88953 5.95542 2.8246 4.81951 3.11868 3.75059C3.41277 2.68167 4.04961 1.73884 4.9314 1.06688C5.81319 0.394927 6.89118 0.0310059 7.99982 0.0310059C9.10846 0.0310059 10.1864 0.394927 11.0682 1.06688C11.95 1.73884 12.5869 2.68167 12.881 3.75059C13.175 4.81951 13.1101 5.95542 12.6961 6.98387C12.2822 8.01232 11.542 8.87644 10.5894 9.44354C12.5153 10.0728 14.1655 11.4003 15.2364 13.2517C15.2859 13.3371 15.312 13.4341 15.3121 13.5328C15.3122 13.6316 15.2863 13.7286 15.2371 13.8142Z" fill="black"/>
</svg>
